<svg width="23" height="19" viewBox="0 0 23 19" fill="none" xmlns="http://www.w3.org/2000/svg">
<path d="M20.25 5.25V0C16.948 2.32434 13.0362 3.62825 9 3.75H6V11.25C6 13.5375 6 17.025 10.2375 18.7125H10.5C10.681 18.7198 10.8585 18.6613 10.9997 18.5479C11.1409 18.4345 11.2364 18.2739 11.2684 18.0956C11.3004 17.9173 11.2668 17.7335 11.1738 17.5781C11.0808 17.4226 10.9347 17.3061 10.7625 17.25C7.5 15.975 7.5 13.4625 7.5 11.25H9C13.0552 11.2607 16.9994 12.5755 20.25 15V9.75C20.8467 9.75 21.419 9.51295 21.841 9.09099C22.2629 8.66903 22.5 8.09674 22.5 7.5C22.5 6.90326 22.2629 6.33097 21.841 5.90901C21.419 5.48705 20.8467 5.25 20.25 5.25ZM0 6V9C0 9.59674 0.237053 10.169 0.65901 10.591C1.08097 11.0129 1.65326 11.25 2.25 11.25H4.5V3.75H2.25C1.65326 3.75 1.08097 3.98705 0.65901 4.40901C0.237053 4.83097 0 5.40326 0 6Z" fill="#5C50E4"/>
</svg>
